<?xml version="1.0" encoding="UTF-8"?>
<svg width="500px" height="500px" viewBox="0 0 500 500" version="1.1" xmlns="http://www.w3.org/2000/svg" xmlns:xlink="http://www.w3.org/1999/xlink">
    <g id="Kernel-Booking-Favicon" stroke="none" stroke-width="1" fill="none" fill-rule="evenodd">
        <g id="K" transform="translate(0.000000, 1.297510)">
            <circle id="Oval" fill="#FFFFFF" cx="250" cy="250" r="250"></circle>
            <path d="M82.725112,105.045256 C116.293504,65.566696 163.43968,38.113468 216.89,30 L192.2808,257.81704 L82.725112,105.045256 Z M231.54024,312.56272 L332.81592,453.78864 C382.44616,433.49496 423.04584,395.50624 446.87184,347.61048 L231.54024,312.56272 Z M467.12328,284.62536 C469.01616,272.9504 470,260.96832 470,248.75568 C470,139.40248 391.11152,48.579792 287.44576,30.7029317 L263.59512,251.49952 L467.12328,284.62536 Z M263.6532,469.58112 C259.13792,469.8592 254.5848,470 250,470 C128.49752,470 30,370.94544 30,248.75568 C30,219.4816 35.6533928,191.53632 45.922104,165.96176 L263.6532,469.58112 Z" id="Shape" fill="#3CB4E5"></path>
        </g>
    </g>
</svg>